<svg width="96" height="96" viewBox="0 0 96 96" fill="none" xmlns="http://www.w3.org/2000/svg">
<path d="M64 0H32C14.3269 0 0 14.3269 0 32V64C0 81.6731 14.3269 96 32 96H64C81.6731 96 96 81.6731 96 64V32C96 14.3269 81.6731 0 64 0Z" fill="white"/>
<path d="M28.9746 21.9799H28.9746C24.0192 21.9799 20.0021 25.997 20.0021 30.9523V65.0477C20.0021 70.0031 24.0192 74.0202 28.9746 74.0202H28.9746C33.93 74.0202 37.9471 70.0031 37.9471 65.0477V30.9523C37.9471 25.997 33.93 21.9799 28.9746 21.9799Z" fill="#6C63FF" fill-opacity="0.75"/>
<path fill-rule="evenodd" clip-rule="evenodd" d="M22.628 24.6082C19.124 28.1121 19.124 33.7933 22.628 37.2973L41.3786 56.048C41.4666 56.1437 41.5568 56.2377 41.6496 56.3305C43.4032 58.0841 45.7018 58.96 48 58.9587C50.2982 58.96 52.5968 58.0841 54.3504 56.3305C54.4432 56.2377 54.5335 56.1437 54.6215 56.048L73.3722 37.2973C76.8758 33.7933 76.8758 28.1121 73.3722 24.6082C69.8682 21.1042 64.1869 21.1042 60.6832 24.6082L48 37.2912L35.3168 24.6082C31.813 21.1042 26.1319 21.1042 22.628 24.6082Z" fill="#6C63FF"/>
<path d="M67.0173 21.9799H67.0173C71.9726 21.9799 75.9897 25.997 75.9897 30.9523V65.0477C75.9897 70.0031 71.9726 74.0202 67.0173 74.0202H67.0173C62.0619 74.0202 58.0448 70.0031 58.0448 65.0477V30.9523C58.0448 25.997 62.0619 21.9799 67.0173 21.9799Z" fill="#6C63FF" fill-opacity="0.75"/>
</svg>
